<svg width="2358" height="1200" viewBox="0 0 2358 1200" fill="none" xmlns="http://www.w3.org/2000/svg">
<path d="M0 0H2358V1200H0V0Z" fill="#7DF0EA"/>
<path d="M0 818H2358V1200H0V818Z" fill="#7B7070"/>
<rect x="455.066" y="21.9208" width="463.448" height="801.101" fill="#8ACFCB"/>
<rect x="981.372" width="339.612" height="823.022" fill="#9AD0CD"/>
<rect x="686.791" y="154.441" width="397.778" height="670.573" fill="#7DBCB9"/>
<rect x="109.826" y="82.7007" width="455.943" height="742.314" fill="#7AB7B3"/>
<rect x="535.748" y="430.442" width="250.487" height="393.576" fill="#426B69"/>
<rect x="1301.28" y="0.99646" width="491.593" height="820.032" fill="#90DCD8"/>
<rect x="1709.38" y="2.98926" width="329.292" height="822.025" fill="#6BBBB7"/>
<rect x="485.087" y="212.232" width="368.695" height="612.782" fill="#649592"/>
<path d="M1169 85.6899H1499.23V825.014L1169 824.836V85.6899Z" fill="#7DBDBA"/>
<rect x="1384.78" y="346.745" width="267.374" height="478.269" fill="#649592"/>
<rect x="1953.3" y="189.315" width="264.56" height="632.71" fill="#72C9C4"/>
<rect x="1535.82" y="125.546" width="231.724" height="703.454" fill="#7EB1AF"/>
<path d="M1613.69 365.372L1662.62 319.984L1675.5 212.638L1723.15 161.487L1739.24 2.98926H1757.27L1772.72 161.487L1824.88 212.638L1835.82 319.984L1886.69 365.372V825.014H1613.69V365.372Z" fill="#5C868C"/>
<rect x="1916.71" y="49.8197" width="356.499" height="775.195" fill="#5FA29E"/>
<rect x="2030.23" y="522.111" width="217.652" height="302.904" fill="#426B69"/>
<rect x="2258.2" y="146.47" width="99.4444" height="678.544" fill="#74B1AF"/>
<rect x="22" y="311" width="328.354" height="512.147" fill="#71A6A3"/>
<path d="M723.891 177H1113.96V826.104H723.891V177Z" fill="#ECB9A9"/>
<rect x="777.251" y="214.282" width="41.2844" height="63.0925" fill="#AAD1F4"/>
<rect x="1021.31" y="214.282" width="41.2844" height="63.0925" fill="#AAD1F4"/>
<rect x="942.391" y="214.282" width="41.2844" height="63.0925" fill="#AAD1F4"/>
<rect x="862.249" y="214.282" width="41.2844" height="63.0925" fill="#AAD1F4"/>
<rect x="777.251" y="314.656" width="41.2844" height="63.0925" fill="#AAD1F4"/>
<rect x="1021.31" y="314.656" width="41.2844" height="63.0925" fill="#AAD1F4"/>
<rect x="942.391" y="314.656" width="41.2844" height="63.0925" fill="#AAD1F4"/>
<rect x="862.249" y="314.656" width="41.2844" height="63.0925" fill="#AAD1F4"/>
<rect x="776.037" y="415.031" width="41.2844" height="63.0925" fill="#AAD1F4"/>
<rect x="1020.1" y="415.031" width="41.2844" height="63.0925" fill="#AAD1F4"/>
<rect x="941.174" y="415.031" width="41.2844" height="63.0925" fill="#AAD1F4"/>
<rect x="861.033" y="415.031" width="41.2844" height="63.0925" fill="#AAD1F4"/>
<rect x="777.251" y="511.104" width="41.2844" height="63.0925" fill="#AAD1F4"/>
<rect x="1021.31" y="511.104" width="41.2844" height="63.0925" fill="#AAD1F4"/>
<rect x="942.391" y="511.104" width="41.2844" height="63.0925" fill="#AAD1F4"/>
<rect x="862.249" y="511.104" width="41.2844" height="63.0925" fill="#AAD1F4"/>
<rect x="777.251" y="611.478" width="41.2844" height="63.0925" fill="#AAD1F4"/>
<rect x="1021.31" y="611.478" width="41.2844" height="63.0925" fill="#AAD1F4"/>
<rect x="942.391" y="611.478" width="41.2844" height="63.0925" fill="#AAD1F4"/>
<rect x="862.249" y="611.478" width="41.2844" height="63.0925" fill="#AAD1F4"/>
<rect x="777.251" y="711.852" width="41.2844" height="63.0925" fill="#AAD1F4"/>
<rect x="1021.31" y="711.852" width="41.2844" height="63.0925" fill="#AAD1F4"/>
<rect x="942.391" y="711.853" width="41.2844" height="63.0925" fill="#AAD1F4"/>
<rect x="862.249" y="711.852" width="41.2844" height="63.0925" fill="#AAD1F4"/>
<path d="M908.921 779.919H939.349V826.213L908.921 826.104V779.919Z" fill="#A97527"/>
<rect x="911.816" y="783.061" width="11.5915" height="41.9542" fill="#835703"/>
<rect x="924.86" y="783.061" width="11.5915" height="41.9542" fill="#835703"/>
<path d="M1397.79 544H1652.8V825.611H1397.79V544Z" fill="#959292"/>
<rect x="1420.23" y="560.109" width="30.5296" height="27.2605" fill="#C2E0F1"/>
<rect x="1600.72" y="560.109" width="30.5296" height="27.2605" fill="#C2E0F1"/>
<rect x="1549.37" y="559.914" width="30.5296" height="27.2605" fill="#C2E0F1"/>
<rect x="1477.48" y="559.914" width="30.5296" height="27.2605" fill="#C2E0F1"/>
<rect x="1420.23" y="603.477" width="30.5296" height="27.2605" fill="#C2E0F1"/>
<rect x="1600.72" y="603.477" width="30.5296" height="27.2605" fill="#C2E0F1"/>
<rect x="1549.37" y="603.283" width="30.5296" height="27.2605" fill="#C2E0F1"/>
<rect x="1477.48" y="603.314" width="30.5296" height="27.2605" fill="#C2E0F1"/>
<rect x="1419.33" y="646.846" width="30.5296" height="27.2605" fill="#C2E0F1"/>
<rect x="1599.82" y="646.846" width="30.5296" height="27.2605" fill="#C2E0F1"/>
<rect x="1548.47" y="646.652" width="30.5296" height="27.2605" fill="#C2E0F1"/>
<rect x="1477.48" y="646.652" width="30.5296" height="27.2605" fill="#C2E0F1"/>
<rect x="1420.23" y="688.357" width="30.5296" height="27.2605" fill="#C2E0F1"/>
<rect x="1600.72" y="688.357" width="30.5296" height="27.2605" fill="#C2E0F1"/>
<rect x="1549.37" y="688.162" width="30.5296" height="27.2605" fill="#C2E0F1"/>
<rect x="1478.37" y="688.162" width="30.5296" height="27.2605" fill="#C2E0F1"/>
<rect x="1420.23" y="731.726" width="30.5296" height="27.2605" fill="#C2E0F1"/>
<rect x="1600.72" y="731.726" width="30.5296" height="27.2605" fill="#C2E0F1"/>
<rect x="1549.37" y="731.531" width="30.5296" height="27.2605" fill="#C2E0F1"/>
<rect x="1478.37" y="731.531" width="30.5296" height="27.2605" fill="#C2E0F1"/>
<rect x="1420.23" y="775.095" width="30.5296" height="27.2605" fill="#C2E0F1"/>
<rect x="1600.72" y="775.095" width="30.5296" height="27.2605" fill="#C2E0F1"/>
<rect x="1549.92" y="775.471" width="30.5296" height="27.2605" fill="#C2E0F1"/>
<rect x="1477.48" y="774.025" width="30.5296" height="27.2605" fill="#C2E0F1"/>
<rect x="1513.61" y="778.797" width="30.4276" height="46.2942" fill="#A97527"/>
<rect x="1516.51" y="781.69" width="11.5915" height="41.9542" fill="#835703"/>
<rect x="1529.55" y="781.69" width="11.5915" height="41.9542" fill="#835703"/>
<path d="M0 343.523H255.042V825.857L0 825V343.523Z" fill="#E066AF"/>
<rect x="22.4443" y="371.134" width="30.5296" height="46.7253" fill="#C2E0F1"/>
<rect x="202.927" y="371.134" width="30.5296" height="46.7253" fill="#C2E0F1"/>
<rect x="151.583" y="370.8" width="30.5296" height="46.7253" fill="#C2E0F1"/>
<rect x="79.687" y="370.8" width="30.5296" height="46.7253" fill="#C2E0F1"/>
<rect x="22.4443" y="445.469" width="30.5296" height="46.7253" fill="#C2E0F1"/>
<rect x="202.927" y="445.469" width="30.5296" height="46.7253" fill="#C2E0F1"/>
<rect x="151.583" y="445.135" width="30.5296" height="46.7253" fill="#C2E0F1"/>
<rect x="79.687" y="445.19" width="30.5296" height="46.7253" fill="#C2E0F1"/>
<rect x="21.5459" y="519.805" width="30.5296" height="46.7253" fill="#C2E0F1"/>
<rect x="202.029" y="519.805" width="30.5296" height="46.7253" fill="#C2E0F1"/>
<rect x="150.685" y="519.471" width="30.5296" height="46.7253" fill="#C2E0F1"/>
<rect x="79.687" y="519.471" width="30.5296" height="46.7253" fill="#C2E0F1"/>
<rect x="22.4443" y="590.955" width="30.5296" height="46.7253" fill="#C2E0F1"/>
<rect x="202.927" y="590.955" width="30.5296" height="46.7253" fill="#C2E0F1"/>
<rect x="151.583" y="590.621" width="30.5296" height="46.7253" fill="#C2E0F1"/>
<rect x="80.585" y="590.621" width="30.5296" height="46.7253" fill="#C2E0F1"/>
<rect x="22.4443" y="665.291" width="30.5296" height="46.7253" fill="#C2E0F1"/>
<rect x="202.927" y="665.291" width="30.5296" height="46.7253" fill="#C2E0F1"/>
<rect x="151.583" y="664.957" width="30.5296" height="46.7253" fill="#C2E0F1"/>
<rect x="80.585" y="664.957" width="30.5296" height="46.7253" fill="#C2E0F1"/>
<rect x="22.4443" y="739.626" width="30.5296" height="46.7253" fill="#C2E0F1"/>
<rect x="202.927" y="739.626" width="30.5296" height="46.7253" fill="#C2E0F1"/>
<rect x="152.134" y="740.272" width="30.5296" height="46.7253" fill="#C2E0F1"/>
<rect x="79.687" y="737.793" width="30.5296" height="46.7253" fill="#C2E0F1"/>
<rect x="115.82" y="779.043" width="30.4276" height="46.2942" fill="#A97527"/>
<rect x="118.718" y="781.936" width="11.5915" height="41.9542" fill="#835703"/>
<rect x="131.758" y="781.936" width="11.5915" height="41.9542" fill="#835703"/>
<path d="M488.926 494H707.963V825.542H488.926V494Z" fill="#C2D54E"/>
<rect x="508.202" y="513.027" width="26.2196" height="32.1987" fill="#C2E0F1"/>
<rect x="663.205" y="513.027" width="26.2196" height="32.1987" fill="#C2E0F1"/>
<rect x="619.109" y="512.796" width="26.2196" height="32.1987" fill="#C2E0F1"/>
<rect x="557.364" y="512.796" width="26.2196" height="32.1987" fill="#C2E0F1"/>
<rect x="508.202" y="564.252" width="26.2196" height="32.1987" fill="#C2E0F1"/>
<rect x="663.205" y="564.252" width="26.2196" height="32.1987" fill="#C2E0F1"/>
<rect x="619.109" y="564.022" width="26.2196" height="32.1987" fill="#C2E0F1"/>
<rect x="557.364" y="564.059" width="26.2196" height="32.1987" fill="#C2E0F1"/>
<rect x="507.431" y="615.477" width="26.2196" height="32.1987" fill="#C2E0F1"/>
<rect x="662.434" y="615.477" width="26.2196" height="32.1987" fill="#C2E0F1"/>
<rect x="618.338" y="615.247" width="26.2196" height="32.1987" fill="#C2E0F1"/>
<rect x="557.364" y="615.247" width="26.2196" height="32.1987" fill="#C2E0F1"/>
<rect x="508.202" y="664.507" width="26.2196" height="32.1987" fill="#C2E0F1"/>
<rect x="663.205" y="664.507" width="26.2196" height="32.1987" fill="#C2E0F1"/>
<rect x="619.109" y="664.276" width="26.2196" height="32.1987" fill="#C2E0F1"/>
<rect x="558.135" y="664.276" width="26.2196" height="32.1987" fill="#C2E0F1"/>
<rect x="508.202" y="715.732" width="26.2196" height="32.1987" fill="#C2E0F1"/>
<rect x="663.205" y="715.732" width="26.2196" height="32.1987" fill="#C2E0F1"/>
<rect x="619.109" y="715.502" width="26.2196" height="32.1987" fill="#C2E0F1"/>
<rect x="558.135" y="715.502" width="26.2196" height="32.1987" fill="#C2E0F1"/>
<rect x="508.202" y="766.957" width="26.2196" height="32.1987" fill="#C2E0F1"/>
<rect x="663.205" y="766.957" width="26.2196" height="32.1987" fill="#C2E0F1"/>
<rect x="619.583" y="767.402" width="26.2196" height="32.1987" fill="#C2E0F1"/>
<rect x="557.364" y="765.693" width="26.2196" height="32.1987" fill="#C2E0F1"/>
<path d="M588.943 793.641H615.075V825.542L588.943 825.597V793.641Z" fill="#A97527"/>
<rect x="591.431" y="795.58" width="9.95502" height="28.9108" fill="#835703"/>
<rect x="602.631" y="795.58" width="9.95502" height="28.9108" fill="#835703"/>
<path d="M1122.83 416H1377.87V826.433H1122.83V416Z" fill="#F97B54"/>
<rect x="1145.28" y="439.498" width="30.5296" height="39.7666" fill="#C2E0F1"/>
<rect x="1325.76" y="439.498" width="30.5296" height="39.7666" fill="#C2E0F1"/>
<rect x="1274.42" y="439.214" width="30.5296" height="39.7666" fill="#C2E0F1"/>
<rect x="1202.52" y="439.214" width="30.5296" height="39.7666" fill="#C2E0F1"/>
<rect x="1145.28" y="502.763" width="30.5296" height="39.7666" fill="#C2E0F1"/>
<rect x="1325.76" y="502.763" width="30.5296" height="39.7666" fill="#C2E0F1"/>
<rect x="1274.42" y="502.479" width="30.5296" height="39.7666" fill="#C2E0F1"/>
<rect x="1202.52" y="502.526" width="30.5296" height="39.7666" fill="#C2E0F1"/>
<rect x="1144.38" y="566.028" width="30.5296" height="39.7666" fill="#C2E0F1"/>
<rect x="1324.86" y="566.028" width="30.5296" height="39.7666" fill="#C2E0F1"/>
<rect x="1273.52" y="565.744" width="30.5296" height="39.7666" fill="#C2E0F1"/>
<rect x="1202.52" y="565.744" width="30.5296" height="39.7666" fill="#C2E0F1"/>
<rect x="1145.28" y="626.582" width="30.5296" height="39.7666" fill="#C2E0F1"/>
<rect x="1325.76" y="626.582" width="30.5296" height="39.7666" fill="#C2E0F1"/>
<rect x="1274.42" y="626.298" width="30.5296" height="39.7666" fill="#C2E0F1"/>
<rect x="1203.42" y="626.298" width="30.5296" height="39.7666" fill="#C2E0F1"/>
<rect x="1145.28" y="689.847" width="30.5296" height="39.7666" fill="#C2E0F1"/>
<rect x="1325.76" y="689.847" width="30.5296" height="39.7666" fill="#C2E0F1"/>
<rect x="1274.42" y="689.563" width="30.5296" height="39.7666" fill="#C2E0F1"/>
<rect x="1203.42" y="689.563" width="30.5296" height="39.7666" fill="#C2E0F1"/>
<rect x="1145.28" y="753.112" width="30.5296" height="39.7666" fill="#C2E0F1"/>
<rect x="1325.76" y="753.112" width="30.5296" height="39.7666" fill="#C2E0F1"/>
<rect x="1274.97" y="753.662" width="30.5296" height="39.7666" fill="#C2E0F1"/>
<rect x="1202.52" y="751.551" width="30.5296" height="39.7666" fill="#C2E0F1"/>
<rect x="1238.75" y="780.567" width="30.4276" height="45.8664" fill="#A97527"/>
<rect x="1241.64" y="783.434" width="11.5915" height="41.5664" fill="#835703"/>
<rect x="1254.69" y="783.434" width="11.5915" height="41.5664" fill="#835703"/>
<path d="M1681.54 284.488L1866.28 210L1874.25 826.15H1675.75L1681.54 284.488Z" fill="#AF4B4B"/>
<path d="M1821.36 252.668L1851.79 241.097V813.132H1821.36V252.668Z" fill="#C4C4C4"/>
<path d="M1777.9 268.578L1808.32 257.007V813.132H1777.9V268.578Z" fill="#C4C4C4"/>
<path d="M1734.43 284.789L1766.31 272.917V813.132H1734.43V284.789Z" fill="#C4C4C4"/>
<path d="M1695.31 298.951L1722.84 288.827V813.132H1695.31V298.951Z" fill="#C4C4C4"/>
<path d="M465.667 400.569L280.928 342L272.959 826.474H471.463L465.667 400.569Z" fill="#C96911"/>
<path d="M325.845 375.549L295.418 366.451V816.239H325.845V375.549Z" fill="#C4C4C4"/>
<path d="M369.312 388.059L338.885 378.961V816.239H369.312V388.059Z" fill="#C4C4C4"/>
<path d="M412.78 400.806L380.903 391.471V816.239H412.78V400.806Z" fill="#C4C4C4"/>
<path d="M451.902 411.942L424.372 403.981V816.239H451.902V411.942Z" fill="#C4C4C4"/>
<path d="M1902.71 394.968H1928.47V322.657H1957.99V259.747H1987.51V175.143L1996.31 169.359L2001.33 58H2004.47L2010.13 169.359L2018.92 175.143V259.747H2046.56V322.657H2077.34V394.968H2108.75V825.94H1902.71V394.968Z" fill="#C4C4C4"/>
<rect x="1917.6" y="807.509" width="175.321" height="10.1269" fill="#ACAAAA"/>
<rect x="1917.6" y="807.509" width="175.321" height="10.1269" fill="#ACAAAA"/>
<rect x="1917.6" y="807.509" width="175.321" height="10.1269" fill="#ACAAAA"/>
<rect x="1917.6" y="788.702" width="175.321" height="13.0203" fill="#ACAAAA"/>
<rect x="1917.6" y="788.702" width="175.321" height="13.0203" fill="#ACAAAA"/>
<rect x="1917.6" y="788.702" width="175.321" height="13.0203" fill="#ACAAAA"/>
<rect x="1917.6" y="768.448" width="175.321" height="13.0203" fill="#ACAAAA"/>
<rect x="1917.6" y="768.448" width="175.321" height="13.0203" fill="#ACAAAA"/>
<rect x="1917.6" y="768.448" width="175.321" height="13.0203" fill="#ACAAAA"/>
<rect x="1917.6" y="748.194" width="175.321" height="13.0203" fill="#ACAAAA"/>
<rect x="1917.6" y="748.194" width="175.321" height="13.0203" fill="#ACAAAA"/>
<rect x="1917.6" y="748.194" width="175.321" height="13.0203" fill="#ACAAAA"/>
<rect x="1917.6" y="707.687" width="175.321" height="13.0203" fill="#ACAAAA"/>
<rect x="1917.6" y="707.687" width="175.321" height="13.0203" fill="#ACAAAA"/>
<rect x="1917.6" y="707.687" width="175.321" height="13.0203" fill="#ACAAAA"/>
<rect x="1917.6" y="727.94" width="175.321" height="13.0203" fill="#ACAAAA"/>
<rect x="1917.6" y="727.94" width="175.321" height="13.0203" fill="#ACAAAA"/>
<rect x="1917.6" y="727.94" width="175.321" height="13.0203" fill="#ACAAAA"/>
<rect x="1917.6" y="687.433" width="175.321" height="13.0203" fill="#ACAAAA"/>
<rect x="1917.6" y="687.433" width="175.321" height="13.0203" fill="#ACAAAA"/>
<rect x="1917.6" y="687.433" width="175.321" height="13.0203" fill="#ACAAAA"/>
<rect x="1917.6" y="667.179" width="175.321" height="13.0203" fill="#ACAAAA"/>
<rect x="1917.6" y="667.179" width="175.321" height="13.0203" fill="#ACAAAA"/>
<rect x="1917.6" y="667.179" width="175.321" height="13.0203" fill="#ACAAAA"/>
<rect x="1917.6" y="646.926" width="175.321" height="13.0203" fill="#ACAAAA"/>
<rect x="1917.6" y="646.926" width="175.321" height="13.0203" fill="#ACAAAA"/>
<rect x="1917.6" y="646.926" width="175.321" height="13.0203" fill="#ACAAAA"/>
<rect x="1917.6" y="606.418" width="175.321" height="13.0203" fill="#ACAAAA"/>
<rect x="1917.6" y="606.418" width="175.321" height="13.0203" fill="#ACAAAA"/>
<rect x="1917.6" y="606.418" width="175.321" height="13.0203" fill="#ACAAAA"/>
<rect x="1917.6" y="626.672" width="175.321" height="13.0203" fill="#ACAAAA"/>
<rect x="1917.6" y="626.672" width="175.321" height="13.0203" fill="#ACAAAA"/>
<rect x="1917.6" y="626.672" width="175.321" height="13.0203" fill="#ACAAAA"/>
<rect x="1917.6" y="586.164" width="175.321" height="13.0203" fill="#ACAAAA"/>
<rect x="1917.6" y="586.164" width="175.321" height="13.0203" fill="#ACAAAA"/>
<rect x="1917.6" y="586.164" width="175.321" height="13.0203" fill="#ACAAAA"/>
<rect x="1917.6" y="565.911" width="175.321" height="13.0203" fill="#ACAAAA"/>
<rect x="1917.6" y="565.911" width="175.321" height="13.0203" fill="#ACAAAA"/>
<rect x="1917.6" y="565.911" width="175.321" height="13.0203" fill="#ACAAAA"/>
<rect x="1917.6" y="545.657" width="175.321" height="13.0203" fill="#ACAAAA"/>
<rect x="1917.6" y="545.657" width="175.321" height="13.0203" fill="#ACAAAA"/>
<rect x="1917.6" y="545.657" width="175.321" height="13.0203" fill="#ACAAAA"/>
<rect x="1917.6" y="505.15" width="175.321" height="13.0203" fill="#ACAAAA"/>
<rect x="1917.6" y="505.15" width="175.321" height="13.0203" fill="#ACAAAA"/>
<rect x="1917.6" y="505.15" width="175.321" height="13.0203" fill="#ACAAAA"/>
<rect x="1917.6" y="525.403" width="175.321" height="13.0203" fill="#ACAAAA"/>
<rect x="1917.6" y="525.403" width="175.321" height="13.0203" fill="#ACAAAA"/>
<rect x="1917.6" y="525.403" width="175.321" height="13.0203" fill="#ACAAAA"/>
<rect x="1917.6" y="484.896" width="175.321" height="13.0203" fill="#ACAAAA"/>
<rect x="1917.6" y="484.896" width="175.321" height="13.0203" fill="#ACAAAA"/>
<rect x="1917.6" y="484.896" width="175.321" height="13.0203" fill="#ACAAAA"/>
<rect x="1917.6" y="464.642" width="175.321" height="13.0203" fill="#ACAAAA"/>
<rect x="1917.6" y="464.642" width="175.321" height="13.0203" fill="#ACAAAA"/>
<rect x="1917.6" y="464.642" width="175.321" height="13.0203" fill="#ACAAAA"/>
<rect x="1917.6" y="444.388" width="175.321" height="13.0203" fill="#ACAAAA"/>
<rect x="1917.6" y="444.388" width="175.321" height="13.0203" fill="#ACAAAA"/>
<rect x="1917.6" y="444.388" width="175.321" height="13.0203" fill="#ACAAAA"/>
<rect x="1917.6" y="403.881" width="175.321" height="13.0203" fill="#ACAAAA"/>
<rect x="1917.6" y="403.881" width="175.321" height="13.0203" fill="#ACAAAA"/>
<rect x="1917.6" y="403.881" width="175.321" height="13.0203" fill="#ACAAAA"/>
<rect x="1917.6" y="424.135" width="175.321" height="13.0203" fill="#ACAAAA"/>
<rect x="1917.6" y="424.135" width="175.321" height="13.0203" fill="#ACAAAA"/>
<rect x="1917.6" y="424.135" width="175.321" height="13.0203" fill="#ACAAAA"/>
<rect x="1936.44" y="370.607" width="133.302" height="14.467" fill="#ACAAAA"/>
<rect x="1936.44" y="370.607" width="133.302" height="14.467" fill="#ACAAAA"/>
<rect x="1936.44" y="327.206" width="133.302" height="14.467" fill="#ACAAAA"/>
<rect x="1936.44" y="327.206" width="133.302" height="14.467" fill="#ACAAAA"/>
<rect x="1936.44" y="348.906" width="133.302" height="14.467" fill="#ACAAAA"/>
<rect x="1936.44" y="348.906" width="133.302" height="14.467" fill="#ACAAAA"/>
<rect x="1963.97" y="269.338" width="76.7935" height="14.467" fill="#ACAAAA"/>
<rect x="1963.97" y="292.485" width="76.7935" height="14.467" fill="#ACAAAA"/>
<path d="M2158.05 706.818H2313.08V828.702H2158.19L2158.05 706.818Z" fill="#CC984B"/>
<path d="M2234.84 613L2341.5 710.426H2128.18L2234.84 613Z" fill="#9E0909"/>
<rect x="2265.27" y="747.232" width="37.6723" height="27.4237" fill="#67D3DA"/>
<rect x="2181.23" y="784.759" width="4.34746" height="37.5272" fill="#8C431A"/>
<rect x="2169.64" y="764.552" width="27.5297" height="20.207" fill="#C4C4C4"/>
<rect x="2173.99" y="767.439" width="18.8361" height="2.88671" fill="#BF1616"/>
<path d="M2179.97 774.996V775.226H2178.82V774.996H2179.97ZM2178.86 774.079V776.212H2178.58V774.079H2178.86ZM2180.22 774.079V776.212H2179.94V774.079H2180.22ZM2180.61 775.437V775.404C2180.61 775.289 2180.63 775.183 2180.66 775.086C2180.69 774.987 2180.74 774.902 2180.8 774.829C2180.86 774.756 2180.94 774.7 2181.03 774.66C2181.12 774.619 2181.22 774.598 2181.33 774.598C2181.44 774.598 2181.54 774.619 2181.63 774.66C2181.72 774.7 2181.79 774.756 2181.86 774.829C2181.92 774.902 2181.97 774.987 2182 775.086C2182.04 775.183 2182.05 775.289 2182.05 775.404V775.437C2182.05 775.552 2182.04 775.658 2182 775.755C2181.97 775.853 2181.92 775.938 2181.86 776.012C2181.79 776.084 2181.72 776.141 2181.63 776.182C2181.54 776.222 2181.44 776.242 2181.33 776.242C2181.22 776.242 2181.12 776.222 2181.03 776.182C2180.94 776.141 2180.87 776.084 2180.8 776.012C2180.74 775.938 2180.69 775.853 2180.66 775.755C2180.63 775.658 2180.61 775.552 2180.61 775.437ZM2180.88 775.404V775.437C2180.88 775.516 2180.89 775.591 2180.91 775.661C2180.93 775.731 2180.95 775.792 2180.99 775.846C2181.03 775.9 2181.08 775.942 2181.13 775.974C2181.19 776.004 2181.26 776.019 2181.33 776.019C2181.41 776.019 2181.47 776.004 2181.53 775.974C2181.58 775.942 2181.63 775.9 2181.67 775.846C2181.7 775.792 2181.73 775.731 2181.75 775.661C2181.77 775.591 2181.78 775.516 2181.78 775.437V775.404C2181.78 775.326 2181.77 775.252 2181.75 775.182C2181.73 775.112 2181.7 775.05 2181.67 774.996C2181.63 774.942 2181.58 774.899 2181.52 774.868C2181.47 774.836 2181.4 774.821 2181.33 774.821C2181.25 774.821 2181.19 774.836 2181.13 774.868C2181.08 774.899 2181.03 774.942 2180.99 774.996C2180.95 775.05 2180.93 775.112 2180.91 775.182C2180.89 775.252 2180.88 775.326 2180.88 775.404ZM2182.66 774.942V776.212H2182.39V774.627H2182.65L2182.66 774.942ZM2182.61 775.36L2182.48 775.355C2182.48 775.247 2182.49 775.147 2182.52 775.055C2182.55 774.962 2182.59 774.882 2182.64 774.813C2182.7 774.745 2182.76 774.692 2182.84 774.655C2182.92 774.617 2183.02 774.598 2183.12 774.598C2183.2 774.598 2183.27 774.609 2183.33 774.63C2183.39 774.651 2183.44 774.683 2183.49 774.728C2183.54 774.773 2183.57 774.831 2183.6 774.901C2183.62 774.972 2183.64 775.057 2183.64 775.156V776.212H2183.36V775.169C2183.36 775.086 2183.35 775.02 2183.32 774.97C2183.29 774.92 2183.26 774.884 2183.2 774.862C2183.15 774.838 2183.09 774.827 2183.03 774.827C2182.95 774.827 2182.88 774.841 2182.83 774.869C2182.77 774.897 2182.73 774.936 2182.7 774.986C2182.66 775.036 2182.64 775.093 2182.63 775.158C2182.61 775.221 2182.61 775.288 2182.61 775.36ZM2183.63 775.21L2183.45 775.266C2183.45 775.179 2183.47 775.096 2183.49 775.016C2183.52 774.935 2183.56 774.864 2183.61 774.802C2183.67 774.739 2183.73 774.69 2183.81 774.654C2183.89 774.617 2183.98 774.598 2184.08 774.598C2184.17 774.598 2184.24 774.609 2184.31 774.632C2184.37 774.654 2184.43 774.689 2184.47 774.736C2184.52 774.782 2184.55 774.841 2184.58 774.913C2184.6 774.985 2184.61 775.071 2184.61 775.171V776.212H2184.34V775.168C2184.34 775.079 2184.33 775.01 2184.3 774.961C2184.27 774.911 2184.23 774.877 2184.18 774.857C2184.13 774.837 2184.07 774.827 2184 774.827C2183.94 774.827 2183.89 774.837 2183.84 774.857C2183.8 774.878 2183.76 774.906 2183.73 774.942C2183.7 774.977 2183.67 775.018 2183.66 775.064C2183.64 775.11 2183.63 775.159 2183.63 775.21ZM2185.68 776.242C2185.57 776.242 2185.47 776.223 2185.38 776.186C2185.29 776.148 2185.21 776.095 2185.15 776.026C2185.09 775.958 2185.04 775.877 2185 775.783C2184.97 775.689 2184.95 775.587 2184.95 775.475V775.414C2184.95 775.285 2184.97 775.17 2185.01 775.07C2185.05 774.968 2185.1 774.882 2185.16 774.812C2185.23 774.742 2185.3 774.688 2185.39 774.652C2185.47 774.616 2185.56 774.598 2185.65 774.598C2185.76 774.598 2185.86 774.618 2185.94 774.657C2186.02 774.696 2186.09 774.75 2186.14 774.821C2186.19 774.89 2186.23 774.972 2186.26 775.067C2186.28 775.161 2186.3 775.263 2186.3 775.374V775.496H2185.11V775.275H2186.03V775.254C2186.02 775.184 2186.01 775.116 2185.98 775.049C2185.96 774.983 2185.92 774.928 2185.86 774.885C2185.81 774.842 2185.74 774.821 2185.65 774.821C2185.58 774.821 2185.53 774.834 2185.48 774.86C2185.42 774.886 2185.38 774.924 2185.34 774.974C2185.3 775.025 2185.28 775.087 2185.26 775.161C2185.23 775.234 2185.22 775.318 2185.22 775.414V775.475C2185.22 775.551 2185.23 775.621 2185.26 775.688C2185.28 775.753 2185.31 775.811 2185.35 775.861C2185.39 775.911 2185.44 775.95 2185.5 775.978C2185.55 776.006 2185.62 776.02 2185.69 776.02C2185.79 776.02 2185.87 776.001 2185.94 775.962C2186 775.923 2186.06 775.87 2186.11 775.805L2186.28 775.935C2186.24 775.987 2186.2 776.036 2186.15 776.083C2186.09 776.13 2186.03 776.168 2185.95 776.198C2185.88 776.227 2185.78 776.242 2185.68 776.242Z" fill="black"/>
<rect x="2213.11" y="753.005" width="42.0191" height="69.281" fill="#A74D1A"/>
</svg>
