<svg width="20" height="20" viewBox="0 0 20 20" fill="none" xmlns="http://www.w3.org/2000/svg">
<rect width="20" height="20" fill="#F5F5F5"/>
<g clip-path="url(#clip0_0_1)">
<rect x="1" y="1" width="18" height="19" fill="#FF5454"/>
<path d="M17 20.25H17.25V20V16.25C17.25 15.9912 17.1592 15.6179 16.8892 15.3053C16.6113 14.9837 16.164 14.75 15.5 14.75C14.836 14.75 14.3887 14.9837 14.1108 15.3053C13.8408 15.6179 13.75 15.9912 13.75 16.25V20V20.25H14H17Z" fill="#D3D3D3" stroke="#4E4E4E" stroke-width="0.5"/>
<rect x="2.8" y="11.8" width="8.4" height="8.4" fill="#D3D3D3" stroke="#343434" stroke-width="0.4"/>
<line x1="3.4" y1="18.6" x2="10.6" y2="18.6" stroke="#B9B9B9" stroke-width="0.8" stroke-linecap="round"/>
<path d="M3.4 16H10.6" stroke="#B9B9B9" stroke-width="0.8" stroke-linecap="round"/>
<line x1="3.4" y1="13.6" x2="10.6" y2="13.6" stroke="#B9B9B9" stroke-width="0.8" stroke-linecap="round"/>
<path d="M0 8.5L0.5 8H19.5L20 8.5V9L19.5 9.5H0.5L0 9V8.5Z" fill="#982B2B"/>
<rect x="2" y="4" width="4" height="3" fill="#98E5F5" stroke="#B1B1B1" stroke-width="0.2"/>
<rect x="8" y="4" width="4" height="3" fill="#98E5F5" stroke="#B1B1B1" stroke-width="0.2"/>
<rect x="14" y="4" width="4" height="3" fill="#98E5F5" stroke="#B1B1B1" stroke-width="0.2"/>
<path d="M0 1.5H20V2L19.5 2.5H0.5L0 2V1.5Z" fill="#982B2B"/>
<path d="M0 0H1V1H19V0H20V1.5H0V0Z" fill="#C8C8C8"/>
</g>
<defs>
<clipPath id="clip0_0_1">
<rect width="20" height="20" fill="white"/>
</clipPath>
</defs>
</svg>
