<svg width="248" height="110" viewBox="0 0 248 110" fill="none" xmlns="http://www.w3.org/2000/svg">
<rect width="248" height="110" fill="#F5F5F5"/>
<g id="firetruck">
<path id="shape" d="M176.04 20.5C172.84 20.9 172.04 23 172.04 24V30H143.04V24C143.04 21.2 140.443 20.5 139.144 20.5L12.04 20.5C8.84002 20.5 7.70668 23.5 7.54002 25V82.5H2.54002C0.140015 82.5 -0.126651 83.8333 0.0400152 84.5C0.540015 87.8333 2.14002 93.9 2.54002 95.5C2.94002 97.1 4.70668 97.5 5.54002 97.5H34.54C34.8733 101.667 37.94 110 47.54 110C57.14 110 60.2067 101.667 60.54 97.5H66.04C66.3734 101.667 69.44 110 79.04 110C88.64 110 91.7067 101.667 92.04 97.5H181.54C181.873 101.667 184.94 110 194.54 110C204.14 110 207.207 101.667 207.54 97.5C217.207 97.6667 239.14 97.9 241.54 97.5C243.94 97.1 244.54 95.3333 244.54 94.5C244.707 91.5 244.54 86.2 244.54 85C244.54 83.8 243.207 83.1667 242.54 83C241.373 65.3333 238.94 29.1 238.54 25.5C238.14 21.9 235.707 20.6667 234.54 20.5C215.873 20.3333 179.24 20.1 176.04 20.5Z" fill="#FB3527"/>
<g id="windows">
<path id="windowleft" d="M191.54 62.5H222.54V24H195.54C192.34 24 191.54 27.1268 191.54 28.6901V62.5Z" fill="#51C0C8" stroke="#3A3A3A"/>
<path id="windowright" d="M224.54 62.5V24H236.63C237.949 24 238.04 24 238.54 25.5C239.04 27 240.058 48.0834 241.173 62.5H224.54Z" fill="#51C1C8"/>
<path id="Vector 1" d="M241.04 62.5H224.54V24C228.04 24 235.34 24 236.54 24C239.04 24 239.04 29 239.04 29.5C239.04 29.6667 239.04 30.5 239.54 29.5" stroke="#3A3A3A"/>
</g>
<g id="wheels">
<circle id="wheellaft" cx="47.54" cy="97" r="13" fill="#373A3C"/>
<path id="wheelmid" d="M92.04 96.9906C92.04 104.17 86.2197 109.991 79.04 109.991C71.8603 109.991 66.04 104.17 66.04 96.9906C66.04 89.8109 71.8603 83.9906 79.04 83.9906C86.2197 83.9906 92.04 89.8109 92.04 96.9906Z" fill="#373A3C"/>
<circle id="wheelright" cx="194.54" cy="97" r="13" fill="#373A3C"/>
<g id="hubcaps">
<ellipse id="hubcapleft" cx="48.04" cy="97" rx="8.5" ry="8" fill="#D9D9D9"/>
<ellipse id="hubcapmid" cx="79.04" cy="97" rx="8.5" ry="8" fill="#D9D9D9"/>
<ellipse id="hubcapright" cx="195.04" cy="97" rx="8.5" ry="8" fill="#D9D9D9"/>
</g>
</g>
<g id="boxes">
<path id="box" d="M63.04 41H30.54V61.5H63.04M63.04 41V61.5M63.04 41H96.04M63.04 61.5H96.04M96.04 61.5H128.54V41H96.04M96.04 61.5V41" stroke="#C53026" stroke-width="0.6"/>
<g id="doorhandles">
<line id="doorhandleleft" x1="40.54" y1="58.5" x2="52.54" y2="58.5" stroke="#B0261C"/>
<line id="doorhandlemid" x1="73.54" y1="58.5" x2="85.54" y2="58.5" stroke="#B0261C"/>
<line id="doorhandleright" x1="106.54" y1="58.5" x2="118.54" y2="58.5" stroke="#B0261C"/>
</g>
</g>
<g id="ladders">
<path id="ladder" d="M36.04 1L18.54 10V16H36.04M36.04 1V16M36.04 1L63.04 16M36.04 1H63.04M174.54 16V1H144.54M174.54 16H144.54M174.54 16L144.54 1M36.04 16H63.04M63.04 16H89.54M63.04 16V1M63.04 1L89.54 16M63.04 1H89.54M89.54 16H117.54M89.54 16V1M89.54 1L117.54 16M89.54 1H117.54M117.54 16H144.54M117.54 16V1M117.54 1L144.54 16M117.54 1H144.54M144.54 16V1" stroke="#2B2C31" stroke-width="2"/>
<g id="truc">
<path id="Vector 2" d="M21.54 20.5L24.04 9H37.04L39.04 20.5H21.54Z" fill="#2C2E3B"/>
<circle id="Ellipse 1" cx="30.54" cy="15" r="3" fill="#5B5C60"/>
</g>
</g>
<g id="yellowline">
<path id="yline" d="M7.54002 76V71H241.75L242.075 76H7.54002Z" fill="#FFC42B"/>
<rect id="lightleft" x="14.04" y="72.5" width="6" height="2" fill="#CA9817" stroke="black"/>
<rect id="lightmidleft" x="149.04" y="72.5" width="6" height="2" fill="#CA9817" stroke="black"/>
<rect id="lightmidright" x="160.04" y="72.5" width="6" height="2" fill="#CA9817" stroke="black"/>
<rect id="lightright" x="226.04" y="72.5" width="6" height="2" fill="#CA9817" stroke="black"/>
</g>
<path id="flashingLights" d="M223.489 17C223.489 18.933 221.251 20.5 218.489 20.5C215.728 20.5 213.489 18.933 213.489 17C213.489 15.067 215.728 13.5 218.489 13.5C221.251 13.5 223.489 15.067 223.489 17Z" fill="#FF584D"/>
<g id="interconnection">
<g id="shadow" style="mix-blend-mode:darken">
<path d="M143.54 30H172.54V82.8516L143.54 82.7894V30Z" fill="#D9D9D9"/>
</g>
<g id="hose">
<circle id="hoselarge" cx="158.04" cy="45" r="9.95" fill="#EDD817" stroke="#CA9817" stroke-width="0.1"/>
<circle id="hosemedium" cx="158.04" cy="45" r="6.95" fill="#EDD817" stroke="#CA9817" stroke-width="0.1"/>
<circle id="hoselittle" cx="158.04" cy="45" r="3.95" fill="#EDD817" stroke="#CA9817" stroke-width="0.1"/>
<circle id="support" cx="158.04" cy="45" r="1" fill="#3E3E3E"/>
<path id="hoseend" d="M148.04 54V45H151.04V54H148.04Z" fill="#EDD717"/>
<path id="hosegrayend" d="M151.04 54H148.04L147.54 55L148.04 56L149.04 62H150.04L151.04 56L151.54 55L151.04 54Z" fill="#D9D9D9"/>
</g>
<g id="sensors">
<path id="pressure sensor" d="M168.39 65C168.39 66.0217 167.562 66.85 166.54 66.85C165.518 66.85 164.69 66.0217 164.69 65C164.69 63.9783 165.518 63.15 166.54 63.15C167.562 63.15 168.39 63.9783 168.39 65Z" fill="white" stroke="black" stroke-width="0.3"/>
<path id="waterlevel" d="M160.39 65C160.39 66.0217 159.562 66.85 158.54 66.85C157.518 66.85 156.69 66.0217 156.69 65C156.69 63.9783 157.518 63.15 158.54 63.15C159.562 63.15 160.39 63.9783 160.39 65Z" fill="white" stroke="black" stroke-width="0.3"/>
<path id="thermometer" d="M152.39 65C152.39 66.0217 151.562 66.85 150.54 66.85C149.518 66.85 148.69 66.0217 148.69 65C148.69 63.9783 149.518 63.15 150.54 63.15C151.562 63.15 152.39 63.9783 152.39 65Z" fill="white" stroke="black" stroke-width="0.3"/>
</g>
</g>
<g id="truckhead">
<path id="trap" d="M211.04 20.5H184.04V19C184.04 18.2 185.04 18 185.54 18H210.04C210.84 18 211.04 18.6667 211.04 19V20.5Z" fill="#464447"/>
<path id="horn" d="M234.04 20.5H230.54V19H231.54V17.5L229.04 17V16L232.54 15V14.5L238.04 14V13.5H240.54V19H238.04V18.5L233.04 18V19H234.04V20.5Z" fill="white"/>
<path id="rearviewmirror" d="M239.04 29.5H246.54V26.5L247.04 40.5" stroke="#3A3A3A" stroke-width="1.5"/>
</g>
<path id="sideskirt" d="M242.54 83C243.207 83.1667 244.54 83.8 244.54 85V94.5C244.54 95.6667 243.54 97.9 239.54 97.5H208.54C208.54 92 205.04 82.9202 194.54 82.8979C184.04 82.8755 180.54 92 180.54 97.5H94.04C93.54 92.5603 89.94 82.6753 79.54 82.6532L79.3297 82.6527C74.5493 82.6791 65.04 85.1834 65.04 97.5H61.54C61.54 93 58.74 82.6089 47.54 82.5851C42.3733 82.7234 33.54 86 33.54 97.5H5.54002C4.70668 97.5 2.94002 97.1 2.54002 95.5C2.14002 93.9 0.706682 87.5 0.0400152 84.5C-0.126651 83.8333 0.140015 82.5 2.54002 82.5H7.54002L47.54 82.5851L79.3297 82.6527C79.4009 82.6524 79.471 82.6525 79.54 82.6532L194.54 82.8979L242.54 83Z" fill="#504846"/>
</g>
</svg>
