<svg width="2358" height="1200" viewBox="0 0 2358 1200" fill="none" xmlns="http://www.w3.org/2000/svg">
<path d="M0 0H2358V1200H0V0Z" fill="#7DF0EA"/>
<path d="M908 0H1308.5L1859.97 908.776H367.795L908 0Z" fill="#80DCD7"/>
<path d="M1660.19 469.801L1920.15 908.776H1396.35L1660.19 469.801Z" fill="#75B8B1"/>
<path d="M841.774 401.712L1120.66 906.944H561.839L841.774 401.712Z" fill="#6DC0B8"/>
<path d="M606.923 258.292L975.177 905.857H237L606.923 258.292Z" fill="#51ABA1"/>
<path d="M1181.6 156.883L1651.8 908.776H712.617L1181.6 156.883Z" fill="#71503D"/>
<path d="M1651.8 908.776L1181.6 156.883L994.139 908.776H1651.8Z" fill="#563A2C"/>
<path d="M1181.6 156.883L1355.07 434.308L1296.35 399.539L1243.87 433.946L1181.6 399.539L1122.88 433.946L1073.07 399.539L1008.88 433.776L1181.6 156.883Z" fill="#C0B37C"/>
<path d="M1181.6 156.883L1113.99 427.789L1122.88 434.308L1181.6 399.539L1243.87 433.584L1296.35 399.539L1355.07 434.308L1181.6 156.883Z" fill="#B19D6A"/>
<path d="M0 919.568L164.184 870L507.565 877.557L832.264 908.732L1237.92 877.557L1671.15 897.396L2051 887.949L2358 919.133V1200H0V919.568Z" fill="#A1C530"/>
<path d="M898.202 920.029V960.705H923.921V920.029H898.202Z" fill="#79502F"/>
<path d="M993.661 920.029H825L866.052 850.356H833.408L873.471 786.724L876.934 780.683H849.73L912.545 680.403L965.963 780.683H948.157L988.22 850.356H952.608L993.661 920.029Z" fill="#76A718"/>
<path d="M994.155 920.029H859.622L893.75 850.356H864.074L895.729 780.683H876.934L912.545 680L965.963 780.683H948.157L988.22 850.356H952.608L994.155 920.029Z" fill="#0A831A"/>
<path d="M1093.41 883.357V919.705H1116.39V883.357H1093.41Z" fill="#79502F"/>
<path d="M1178.71 883.357H1028L1064.68 821.098H1035.51L1071.31 764.238L1074.41 758.84H1050.1L1106.23 669.23L1153.96 758.84H1138.05L1173.85 821.098H1142.03L1178.71 883.357Z" fill="#76A718"/>
<path d="M1179.16 883.357H1058.94L1089.43 821.098H1062.92L1091.2 758.84H1074.41L1106.23 668.87L1153.96 758.84H1138.05L1173.85 821.098H1142.03L1179.16 883.357Z" fill="#0A831A"/>
<path d="M1575.03 925.68V960.705H1597.18V925.68H1575.03Z" fill="#79502F"/>
<path d="M1657.23 925.68H1512L1547.35 865.687H1519.24L1553.74 810.896L1556.72 805.695H1533.29L1587.38 719.347L1633.38 805.695H1618.05L1652.54 865.687H1621.88L1657.23 925.68Z" fill="#76A718"/>
<path d="M1657.65 925.68H1541.81L1571.2 865.687H1545.65L1572.9 805.695H1556.72L1587.38 719L1633.38 805.695H1618.05L1652.54 865.687H1621.88L1657.65 925.68Z" fill="#0A831A"/>
<path d="M1262.01 866.711V893.945H1279.23V866.711H1262.01Z" fill="#79502F"/>
<path d="M1325.93 866.711H1213L1240.49 820.061H1218.63L1245.45 777.457L1247.77 773.412H1229.56L1271.62 706.27L1307.38 773.412H1295.46L1322.28 820.061H1298.44L1325.93 866.711Z" fill="#76A718"/>
<path d="M1326.26 866.711H1236.18L1259.03 820.061H1239.16L1260.36 773.412H1247.77L1271.62 706L1307.38 773.412H1295.46L1322.28 820.061H1298.44L1326.26 866.711Z" fill="#0A831A"/>
<path d="M1386.56 983.748V1049.63H1428.21V983.748H1386.56Z" fill="#79502F"/>
<path d="M1541.16 983.748H1268L1334.49 870.907H1281.62L1346.5 767.85L1352.11 758.066H1308.05L1409.79 595.652L1496.3 758.066H1467.46L1532.35 870.907H1474.67L1541.16 983.748Z" fill="#76A718"/>
<path d="M1541.96 983.748H1324.07L1379.35 870.907H1331.28L1382.55 758.066H1352.11L1409.79 595L1496.3 758.066H1467.46L1532.35 870.907H1474.67L1541.96 983.748Z" fill="#0A831A"/>
<path d="M1747.56 931.676V981.443H1779.03V931.676H1747.56Z" fill="#79502F"/>
<path d="M1864.36 931.676H1658L1708.23 846.431H1668.29L1717.3 768.578L1721.54 761.186H1688.26L1765.11 638.493L1830.47 761.186H1808.68L1857.7 846.431H1814.13L1864.36 931.676Z" fill="#76A718"/>
<path d="M1864.96 931.676H1700.36L1742.12 846.431H1705.81L1744.54 761.186H1721.54L1765.11 638L1830.47 761.186H1808.68L1857.7 846.431H1814.13L1864.96 931.676Z" fill="#0A831A"/>
<path d="M1015.91 971.296V1016.25H1044.33V971.296H1015.91Z" fill="#79502F"/>
<path d="M1121.42 971.297H935L980.374 894.289H944.293L988.574 823.959L992.401 817.282H962.334L1031.76 706.445L1090.8 817.282H1071.12L1115.4 894.289H1076.04L1121.42 971.297Z" fill="#76A718"/>
<path d="M1121.96 971.297H973.267L1010.99 894.289H978.187L1013.17 817.282H992.401L1031.76 706L1090.8 817.282H1071.12L1115.4 894.289H1076.04L1121.96 971.297Z" fill="#0A831A"/>
<path d="M583.975 939.197V1003.63H624.714V939.197H583.975Z" fill="#79502F"/>
<path d="M735.179 939.197H468.026L533.052 828.838H481.345L544.803 728.048L550.287 718.479H507.198L606.695 559.638L691.306 718.479H663.102L726.561 828.838H670.153L735.179 939.197Z" fill="#76A718"/>
<path d="M735.962 939.197H522.867L576.924 828.838H529.918L580.058 718.479H550.287L606.695 559L691.306 718.479H663.102L726.561 828.838H670.153L735.962 939.197Z" fill="#0A831A"/>
</svg>
