<svg width="553" height="453" viewBox="0 0 553 453" fill="none" xmlns="http://www.w3.org/2000/svg">
    <g id="Ship">
        <g id="masts">
            <path id="very-left-mast" d="M6.50001 246L111 290L111.5 290.231V278L10 240C7.33334 239.167 1.80001 238 1.00001 240C0.200011 242 4.33334 244.833 6.50001 246Z" fill="#9D4C35"/>
            <path id="left-mast" d="M160.5 184.5L159.5 298L173 302.5L172 184.5H213C213.667 184.5 215 184.2 215 183C215 181.8 213.333 181.167 212.5 181H172L171 122H194.5C195.333 122 197 121.7 197 120.5C197 119.3 195.333 119 194.5 119H171V115H178C179.667 114.833 183 113.6 183 110C183 106.4 179.667 105.167 178 105H171V80C170.667 78.3333 169.3 75 166.5 75C163.7 75 162.333 78.3333 162 80L161.5 105H155C153.333 105.167 150 106.4 150 110C150 113.6 153.333 114.833 155 115H161V119H139C138.333 119 137 119.3 137 120.5C137 121.7 138.333 122 139 122H161V176V181H127.5C126.833 181 125 181.3 125 182.5C125 183.7 126.833 184 127.5 184L160.5 184.5Z" fill="#9D4C35"/>
            <path id="middle-mast" d="M318 355H304L305 148.5H253C252 148.5 249.5 148.6 249.5 147C249.5 145.5 252.333 145 253 145H305L306 73H278L276.5 72.5L276 71.5L276.5 70.5L278 70H306V62H298C296.667 61.8333 294 60.6 294 57C294 53.4 296.667 52.1667 298 52H306L306.5 4C306.5 2.66667 307.4 0 311 0C314.6 0 315.833 2.66667 316 4V52H323C324.333 52.3333 327 53.8 327 57C327 60.2 324.333 61.6667 323 62H316V70H346.5C347 70 348.5 70.3 348.5 71.5C348.5 72.7 347 73 346.5 73H316L316.5 144.5L387 145C387.667 145 389 145.4 389 147C389 148.6 387.667 149 387 149L317 148L318 355Z" fill="#9D4C35"/>
            <path id="right-mast" d="M433 164L432 277H444V164L484 164.5C485 164.5 487 164.1 487 162.5C487 160.9 485 160.167 484 160H444V89H473.5C474.5 88.8333 476 88.7 476 87.5C476 86.3 474.5 86.1667 473.5 86L444 85.5V81H450.5C452 80.6667 455 79.2 455 76C455 72.8 452 71.3333 450.5 71H443L442 40C441.667 38.6667 440.4 36 438 36C435.6 36 434.333 38.6667 434 40L433.5 71H427.5C425.667 71 422 72 422 76C422 80 425.667 81 427.5 81H433V86H404.5C403.667 86 402 86.3 402 87.5C402 88.7 403.667 89 404.5 89H433V161H399.5C398.667 161 397 161.3 397 162.5C397 163.7 398.667 164 399.5 164H433Z" fill="#9D4C35"/>
        </g>
        <g id="flags">
            <path id="top-right-flag" d="M405.416 155H472C469.019 151.881 462 137.512 462 122.5C462 108 467.5 97.5 471 89H405.5C401.028 94.4179 392 108.504 392 121.507C392 134.51 400.944 149.254 405.416 155Z" fill="#EEEEEE"/>
            <path id="bot-right-flag" d="M398.273 247H484C480.161 243.077 470.007 230.931 466.727 212.313C463.5 194 475.823 172.965 483.5 164.5L399.5 164C391.5 170.5 381 188.528 381 204.881C381 221.233 392.516 239.774 398.273 247Z" fill="#EEEEEE"/>
            <path id="bot-mid-flag" d="M358.831 211.76C358.831 248.421 376.944 272.529 386 280H252.169C243.112 269.042 225 240.052 225 211.76C225 183.468 243.279 157.632 252 148.5L317.5 148L386 149C376.944 154.645 358.831 175.1 358.831 211.76Z" fill="#EEEEEE"/>
            <path id="mid-mid-flag" d="M333.162 104.62C333.162 123.09 342.387 135.236 347 139H278.837C274.225 133.479 265 118.874 265 104.62C265 90.3658 274.558 77.6008 279 73H346.345C342 78 333.162 86.1498 333.162 104.62Z" fill="#EEEEEE"/>
            <path id="top-mid-flag" d="M306.5 4H316H375.684L376 4.28889V45.6914L375.684 46H316V40.5V20H306.5L306 19.5V13.5L306.5 13H316V10.5H306.5L306 10V4.5L306.5 4Z" fill="#EEEEEE"/>
            <path id="bot-left-flag" d="M125.839 267H212C208.142 262.983 197.236 250.641 194.639 231.478C192 212 202.866 195.5 210.985 184.5L127.761 184C121.974 190.978 110 207.254 110 224C110 240.746 120.052 259.6 125.839 267Z" fill="#EEEEEE"/>
            <path id="bot-right-flag_2" d="M183.031 147.871C183.031 162.983 190.344 172.92 194 176H139.969C136.312 171.483 129 159.533 129 147.871C129 136.208 136.042 125.764 139.562 122H194C190.344 124.327 183.031 132.759 183.031 147.871Z" fill="#EEEEEE"/>
            <g id="text">
                <path id="Error 404" d="M327.812 17.0566H324.115V20.0801H328.41V21H322.99V12.4688H328.352V13.3945H324.115V16.1367H327.812V17.0566ZM332.705 15.6328C332.541 15.6055 332.363 15.5918 332.172 15.5918C331.461 15.5918 330.979 15.8945 330.725 16.5V21H329.641V14.6602H330.695L330.713 15.3926C331.068 14.8262 331.572 14.543 332.225 14.543C332.436 14.543 332.596 14.5703 332.705 14.625V15.6328ZM336.771 15.6328C336.607 15.6055 336.43 15.5918 336.238 15.5918C335.527 15.5918 335.045 15.8945 334.791 16.5V21H333.707V14.6602H334.762L334.779 15.3926C335.135 14.8262 335.639 14.543 336.291 14.543C336.502 14.543 336.662 14.5703 336.771 14.625V15.6328ZM337.369 17.7715C337.369 17.1504 337.49 16.5918 337.732 16.0957C337.979 15.5996 338.318 15.2168 338.752 14.9473C339.189 14.6777 339.688 14.543 340.246 14.543C341.109 14.543 341.807 14.8418 342.338 15.4395C342.873 16.0371 343.141 16.832 343.141 17.8242V17.9004C343.141 18.5176 343.021 19.0723 342.783 19.5645C342.549 20.0527 342.211 20.4336 341.77 20.707C341.332 20.9805 340.828 21.1172 340.258 21.1172C339.398 21.1172 338.701 20.8184 338.166 20.2207C337.635 19.623 337.369 18.832 337.369 17.8477V17.7715ZM338.459 17.9004C338.459 18.6035 338.621 19.168 338.945 19.5938C339.273 20.0195 339.711 20.2324 340.258 20.2324C340.809 20.2324 341.246 20.0176 341.57 19.5879C341.895 19.1543 342.057 18.5488 342.057 17.7715C342.057 17.0762 341.891 16.5137 341.559 16.084C341.23 15.6504 340.793 15.4336 340.246 15.4336C339.711 15.4336 339.279 15.6465 338.951 16.0723C338.623 16.498 338.459 17.1074 338.459 17.9004ZM347.564 15.6328C347.4 15.6055 347.223 15.5918 347.031 15.5918C346.32 15.5918 345.838 15.8945 345.584 16.5V21H344.5V14.6602H345.555L345.572 15.3926C345.928 14.8262 346.432 14.543 347.084 14.543C347.295 14.543 347.455 14.5703 347.564 14.625V15.6328ZM356.008 18.1348H357.191V19.0195H356.008V21H354.918V19.0195H351.033V18.3809L354.854 12.4688H356.008V18.1348ZM352.264 18.1348H354.918V13.9512L354.789 14.1855L352.264 18.1348ZM363.52 17.3613C363.52 18.6309 363.303 19.5742 362.869 20.1914C362.436 20.8086 361.758 21.1172 360.836 21.1172C359.926 21.1172 359.252 20.8164 358.814 20.2148C358.377 19.6094 358.15 18.707 358.135 17.5078V16.0605C358.135 14.8066 358.352 13.875 358.785 13.2656C359.219 12.6562 359.898 12.3516 360.824 12.3516C361.742 12.3516 362.418 12.6465 362.852 13.2363C363.285 13.8223 363.508 14.7285 363.52 15.9551V17.3613ZM362.436 15.8789C362.436 14.9609 362.307 14.293 362.049 13.875C361.791 13.4531 361.383 13.2422 360.824 13.2422C360.27 13.2422 359.865 13.4512 359.611 13.8691C359.357 14.2871 359.227 14.9297 359.219 15.7969V17.5312C359.219 18.4531 359.352 19.1348 359.617 19.5762C359.887 20.0137 360.293 20.2324 360.836 20.2324C361.371 20.2324 361.768 20.0254 362.025 19.6113C362.287 19.1973 362.424 18.5449 362.436 17.6543V15.8789ZM369.484 18.1348H370.668V19.0195H369.484V21H368.395V19.0195H364.51V18.3809L368.33 12.4688H369.484V18.1348ZM365.74 18.1348H368.395V13.9512L368.266 14.1855L365.74 18.1348Z" fill="black"/>
                <path id="This page has" d="M330.442 27.1973H329.071V31H328.512V27.1973H327.144V26.7344H330.442V27.1973ZM331.532 28.2139C331.772 27.9189 332.085 27.7715 332.47 27.7715C333.14 27.7715 333.478 28.1494 333.483 28.9053V31H332.941V28.9023C332.939 28.6738 332.887 28.5049 332.783 28.3955C332.682 28.2861 332.522 28.2314 332.306 28.2314C332.13 28.2314 331.976 28.2783 331.843 28.3721C331.71 28.4658 331.606 28.5889 331.532 28.7412V31H330.99V26.5H331.532V28.2139ZM334.884 31H334.342V27.8301H334.884V31ZM334.298 26.9893C334.298 26.9014 334.324 26.8271 334.377 26.7666C334.432 26.7061 334.512 26.6758 334.617 26.6758C334.723 26.6758 334.803 26.7061 334.857 26.7666C334.912 26.8271 334.939 26.9014 334.939 26.9893C334.939 27.0771 334.912 27.1504 334.857 27.209C334.803 27.2676 334.723 27.2969 334.617 27.2969C334.512 27.2969 334.432 27.2676 334.377 27.209C334.324 27.1504 334.298 27.0771 334.298 26.9893ZM337.6 30.1592C337.6 30.0127 337.544 29.8994 337.433 29.8193C337.323 29.7373 337.131 29.667 336.855 29.6084C336.582 29.5498 336.364 29.4795 336.202 29.3975C336.042 29.3154 335.923 29.2178 335.845 29.1045C335.769 28.9912 335.73 28.8564 335.73 28.7002C335.73 28.4404 335.84 28.2207 336.059 28.041C336.279 27.8613 336.561 27.7715 336.902 27.7715C337.262 27.7715 337.553 27.8643 337.775 28.0498C338 28.2354 338.112 28.4727 338.112 28.7617H337.567C337.567 28.6133 337.504 28.4854 337.377 28.3779C337.252 28.2705 337.094 28.2168 336.902 28.2168C336.705 28.2168 336.551 28.2598 336.439 28.3457C336.328 28.4316 336.272 28.5439 336.272 28.6826C336.272 28.8135 336.324 28.9121 336.428 28.9785C336.531 29.0449 336.718 29.1084 336.987 29.1689C337.259 29.2295 337.479 29.3018 337.646 29.3857C337.814 29.4697 337.938 29.5713 338.019 29.6904C338.101 29.8076 338.142 29.9512 338.142 30.1211C338.142 30.4043 338.028 30.6318 337.802 30.8037C337.575 30.9736 337.281 31.0586 336.92 31.0586C336.666 31.0586 336.441 31.0137 336.246 30.9238C336.051 30.834 335.897 30.709 335.786 30.5488C335.677 30.3867 335.622 30.2119 335.622 30.0244H336.164C336.174 30.2061 336.246 30.3506 336.381 30.458C336.518 30.5635 336.697 30.6162 336.92 30.6162C337.125 30.6162 337.289 30.5752 337.412 30.4932C337.537 30.4092 337.6 30.2979 337.6 30.1592ZM343.014 29.4502C343.014 29.9326 342.903 30.3213 342.683 30.6162C342.462 30.9111 342.163 31.0586 341.786 31.0586C341.401 31.0586 341.099 30.9365 340.878 30.6924V32.2188H340.336V27.8301H340.831L340.857 28.1816C341.078 27.9082 341.385 27.7715 341.777 27.7715C342.158 27.7715 342.459 27.915 342.68 28.2021C342.902 28.4893 343.014 28.8887 343.014 29.4004V29.4502ZM342.472 29.3887C342.472 29.0312 342.396 28.749 342.243 28.542C342.091 28.335 341.882 28.2314 341.616 28.2314C341.288 28.2314 341.042 28.377 340.878 28.668V30.1826C341.04 30.4717 341.288 30.6162 341.622 30.6162C341.882 30.6162 342.088 30.5137 342.24 30.3086C342.395 30.1016 342.472 29.7949 342.472 29.3887ZM345.662 31C345.631 30.9375 345.605 30.8262 345.586 30.666C345.334 30.9277 345.033 31.0586 344.684 31.0586C344.371 31.0586 344.114 30.9707 343.913 30.7949C343.714 30.6172 343.614 30.3926 343.614 30.1211C343.614 29.791 343.739 29.5352 343.989 29.3535C344.241 29.1699 344.595 29.0781 345.05 29.0781H345.577V28.8291C345.577 28.6396 345.521 28.4893 345.407 28.3779C345.294 28.2646 345.127 28.208 344.906 28.208C344.713 28.208 344.551 28.2568 344.42 28.3545C344.289 28.4521 344.224 28.5703 344.224 28.709H343.679C343.679 28.5508 343.734 28.3984 343.846 28.252C343.959 28.1035 344.111 27.9863 344.303 27.9004C344.496 27.8145 344.708 27.7715 344.938 27.7715C345.304 27.7715 345.59 27.8633 345.797 28.0469C346.004 28.2285 346.111 28.4795 346.119 28.7998V30.2588C346.119 30.5498 346.156 30.7812 346.23 30.9531V31H345.662ZM344.763 30.5869C344.933 30.5869 345.094 30.543 345.246 30.4551C345.398 30.3672 345.509 30.2529 345.577 30.1123V29.4619H345.152C344.488 29.4619 344.156 29.6562 344.156 30.0449C344.156 30.2148 344.213 30.3477 344.326 30.4434C344.439 30.5391 344.585 30.5869 344.763 30.5869ZM346.84 29.3887C346.84 28.8945 346.954 28.502 347.183 28.2109C347.411 27.918 347.714 27.7715 348.091 27.7715C348.478 27.7715 348.779 27.9082 348.996 28.1816L349.022 27.8301H349.518V30.9238C349.518 31.334 349.396 31.6572 349.151 31.8936C348.909 32.1299 348.583 32.248 348.173 32.248C347.944 32.248 347.721 32.1992 347.502 32.1016C347.283 32.0039 347.116 31.8701 347.001 31.7002L347.282 31.375C347.515 31.6621 347.799 31.8057 348.135 31.8057C348.398 31.8057 348.604 31.7314 348.75 31.583C348.898 31.4346 348.973 31.2256 348.973 30.9561V30.6836C348.756 30.9336 348.46 31.0586 348.085 31.0586C347.714 31.0586 347.413 30.9092 347.183 30.6104C346.954 30.3115 346.84 29.9043 346.84 29.3887ZM347.385 29.4502C347.385 29.8076 347.458 30.0889 347.604 30.2939C347.751 30.4971 347.956 30.5986 348.22 30.5986C348.562 30.5986 348.812 30.4434 348.973 30.1328V28.6855C348.807 28.3828 348.558 28.2314 348.226 28.2314C347.962 28.2314 347.756 28.334 347.607 28.5391C347.459 28.7441 347.385 29.0479 347.385 29.4502ZM351.653 31.0586C351.224 31.0586 350.874 30.918 350.604 30.6367C350.335 30.3535 350.2 29.9756 350.2 29.5029V29.4033C350.2 29.0889 350.26 28.8086 350.379 28.5625C350.5 28.3145 350.668 28.1211 350.883 27.9824C351.1 27.8418 351.334 27.7715 351.586 27.7715C351.998 27.7715 352.318 27.9072 352.547 28.1787C352.775 28.4502 352.89 28.8389 352.89 29.3447V29.5703H350.742C350.75 29.8828 350.841 30.1357 351.015 30.3291C351.19 30.5205 351.413 30.6162 351.683 30.6162C351.874 30.6162 352.036 30.5771 352.169 30.499C352.302 30.4209 352.418 30.3174 352.518 30.1885L352.849 30.4463C352.583 30.8545 352.185 31.0586 351.653 31.0586ZM351.586 28.2168C351.367 28.2168 351.184 28.2969 351.035 28.457C350.887 28.6152 350.795 28.8379 350.76 29.125H352.348V29.084C352.332 28.8086 352.258 28.5957 352.125 28.4453C351.992 28.293 351.812 28.2168 351.586 28.2168ZM355.55 28.2139C355.79 27.9189 356.103 27.7715 356.487 27.7715C357.157 27.7715 357.495 28.1494 357.501 28.9053V31H356.959V28.9023C356.957 28.6738 356.904 28.5049 356.801 28.3955C356.699 28.2861 356.54 28.2314 356.323 28.2314C356.147 28.2314 355.993 28.2783 355.86 28.3721C355.728 28.4658 355.624 28.5889 355.55 28.7412V31H355.008V26.5H355.55V28.2139ZM360.27 31C360.238 30.9375 360.213 30.8262 360.193 30.666C359.941 30.9277 359.641 31.0586 359.291 31.0586C358.979 31.0586 358.722 30.9707 358.521 30.7949C358.321 30.6172 358.222 30.3926 358.222 30.1211C358.222 29.791 358.347 29.5352 358.597 29.3535C358.849 29.1699 359.202 29.0781 359.657 29.0781H360.185V28.8291C360.185 28.6396 360.128 28.4893 360.015 28.3779C359.901 28.2646 359.734 28.208 359.514 28.208C359.32 28.208 359.158 28.2568 359.027 28.3545C358.896 28.4521 358.831 28.5703 358.831 28.709H358.286C358.286 28.5508 358.342 28.3984 358.453 28.252C358.566 28.1035 358.719 27.9863 358.91 27.9004C359.104 27.8145 359.315 27.7715 359.546 27.7715C359.911 27.7715 360.197 27.8633 360.404 28.0469C360.611 28.2285 360.719 28.4795 360.727 28.7998V30.2588C360.727 30.5498 360.764 30.7812 360.838 30.9531V31H360.27ZM359.37 30.5869C359.54 30.5869 359.701 30.543 359.854 30.4551C360.006 30.3672 360.116 30.2529 360.185 30.1123V29.4619H359.76C359.096 29.4619 358.764 29.6562 358.764 30.0449C358.764 30.2148 358.82 30.3477 358.934 30.4434C359.047 30.5391 359.192 30.5869 359.37 30.5869ZM363.422 30.1592C363.422 30.0127 363.366 29.8994 363.255 29.8193C363.146 29.7373 362.953 29.667 362.678 29.6084C362.404 29.5498 362.187 29.4795 362.024 29.3975C361.864 29.3154 361.745 29.2178 361.667 29.1045C361.591 28.9912 361.553 28.8564 361.553 28.7002C361.553 28.4404 361.662 28.2207 361.881 28.041C362.102 27.8613 362.383 27.7715 362.725 27.7715C363.084 27.7715 363.375 27.8643 363.598 28.0498C363.822 28.2354 363.935 28.4727 363.935 28.7617H363.39C363.39 28.6133 363.326 28.4854 363.199 28.3779C363.074 28.2705 362.916 28.2168 362.725 28.2168C362.527 28.2168 362.373 28.2598 362.262 28.3457C362.15 28.4316 362.095 28.5439 362.095 28.6826C362.095 28.8135 362.146 28.9121 362.25 28.9785C362.354 29.0449 362.54 29.1084 362.81 29.1689C363.081 29.2295 363.301 29.3018 363.469 29.3857C363.637 29.4697 363.761 29.5713 363.841 29.6904C363.923 29.8076 363.964 29.9512 363.964 30.1211C363.964 30.4043 363.851 30.6318 363.624 30.8037C363.397 30.9736 363.104 31.0586 362.742 31.0586C362.488 31.0586 362.264 31.0137 362.068 30.9238C361.873 30.834 361.72 30.709 361.608 30.5488C361.499 30.3867 361.444 30.2119 361.444 30.0244H361.986C361.996 30.2061 362.068 30.3506 362.203 30.458C362.34 30.5635 362.52 30.6162 362.742 30.6162C362.947 30.6162 363.111 30.5752 363.234 30.4932C363.359 30.4092 363.422 30.2979 363.422 30.1592Z" fill="black"/>
                <path id="not been found" d="M326.923 34.8301L326.94 35.2285C327.183 34.9238 327.499 34.7715 327.89 34.7715C328.56 34.7715 328.897 35.1494 328.903 35.9053V38H328.361V35.9023C328.359 35.6738 328.307 35.5049 328.203 35.3955C328.102 35.2861 327.942 35.2314 327.726 35.2314C327.55 35.2314 327.396 35.2783 327.263 35.3721C327.13 35.4658 327.026 35.5889 326.952 35.7412V38H326.41V34.8301H326.923ZM329.577 36.3857C329.577 36.0752 329.638 35.7959 329.759 35.5479C329.882 35.2998 330.052 35.1084 330.269 34.9736C330.487 34.8389 330.736 34.7715 331.016 34.7715C331.447 34.7715 331.796 34.9209 332.062 35.2197C332.329 35.5186 332.463 35.916 332.463 36.4121V36.4502C332.463 36.7588 332.403 37.0361 332.284 37.2822C332.167 37.5264 331.998 37.7168 331.777 37.8535C331.559 37.9902 331.307 38.0586 331.021 38.0586C330.592 38.0586 330.243 37.9092 329.976 37.6104C329.71 37.3115 329.577 36.916 329.577 36.4238V36.3857ZM330.122 36.4502C330.122 36.8018 330.203 37.084 330.365 37.2969C330.529 37.5098 330.748 37.6162 331.021 37.6162C331.297 37.6162 331.516 37.5088 331.678 37.2939C331.84 37.0771 331.921 36.7744 331.921 36.3857C331.921 36.0381 331.838 35.7568 331.672 35.542C331.508 35.3252 331.289 35.2168 331.016 35.2168C330.748 35.2168 330.532 35.3232 330.368 35.5361C330.204 35.749 330.122 36.0537 330.122 36.4502ZM333.878 34.0625V34.8301H334.47V35.249H333.878V37.2148C333.878 37.3418 333.904 37.4375 333.957 37.502C334.01 37.5645 334.1 37.5957 334.227 37.5957C334.289 37.5957 334.375 37.584 334.484 37.5605V38C334.342 38.0391 334.203 38.0586 334.068 38.0586C333.826 38.0586 333.644 37.9854 333.521 37.8389C333.397 37.6924 333.336 37.4844 333.336 37.2148V35.249H332.759V34.8301H333.336V34.0625H333.878ZM339.277 36.4502C339.277 36.9346 339.166 37.3242 338.943 37.6191C338.721 37.9121 338.422 38.0586 338.047 38.0586C337.646 38.0586 337.337 37.917 337.118 37.6338L337.092 38H336.594V33.5H337.136V35.1787C337.354 34.9072 337.656 34.7715 338.041 34.7715C338.426 34.7715 338.728 34.917 338.946 35.208C339.167 35.499 339.277 35.8975 339.277 36.4033V36.4502ZM338.735 36.3887C338.735 36.0195 338.664 35.7344 338.521 35.5332C338.379 35.332 338.174 35.2314 337.906 35.2314C337.549 35.2314 337.292 35.3975 337.136 35.7295V37.1006C337.302 37.4326 337.561 37.5986 337.912 37.5986C338.172 37.5986 338.374 37.498 338.519 37.2969C338.663 37.0957 338.735 36.793 338.735 36.3887ZM341.278 38.0586C340.849 38.0586 340.499 37.918 340.229 37.6367C339.96 37.3535 339.825 36.9756 339.825 36.5029V36.4033C339.825 36.0889 339.885 35.8086 340.004 35.5625C340.125 35.3145 340.293 35.1211 340.508 34.9824C340.725 34.8418 340.959 34.7715 341.211 34.7715C341.623 34.7715 341.943 34.9072 342.172 35.1787C342.4 35.4502 342.515 35.8389 342.515 36.3447V36.5703H340.367C340.375 36.8828 340.466 37.1357 340.64 37.3291C340.815 37.5205 341.038 37.6162 341.308 37.6162C341.499 37.6162 341.661 37.5771 341.794 37.499C341.927 37.4209 342.043 37.3174 342.143 37.1885L342.474 37.4463C342.208 37.8545 341.81 38.0586 341.278 38.0586ZM341.211 35.2168C340.992 35.2168 340.809 35.2969 340.66 35.457C340.512 35.6152 340.42 35.8379 340.385 36.125H341.973V36.084C341.957 35.8086 341.883 35.5957 341.75 35.4453C341.617 35.293 341.438 35.2168 341.211 35.2168ZM344.46 38.0586C344.03 38.0586 343.681 37.918 343.411 37.6367C343.142 37.3535 343.007 36.9756 343.007 36.5029V36.4033C343.007 36.0889 343.066 35.8086 343.186 35.5625C343.307 35.3145 343.475 35.1211 343.689 34.9824C343.906 34.8418 344.141 34.7715 344.393 34.7715C344.805 34.7715 345.125 34.9072 345.354 35.1787C345.582 35.4502 345.696 35.8389 345.696 36.3447V36.5703H343.549C343.557 36.8828 343.647 37.1357 343.821 37.3291C343.997 37.5205 344.22 37.6162 344.489 37.6162C344.681 37.6162 344.843 37.5771 344.976 37.499C345.108 37.4209 345.225 37.3174 345.324 37.1885L345.655 37.4463C345.39 37.8545 344.991 38.0586 344.46 38.0586ZM344.393 35.2168C344.174 35.2168 343.99 35.2969 343.842 35.457C343.693 35.6152 343.602 35.8379 343.566 36.125H345.154V36.084C345.139 35.8086 345.064 35.5957 344.932 35.4453C344.799 35.293 344.619 35.2168 344.393 35.2168ZM346.839 34.8301L346.856 35.2285C347.099 34.9238 347.415 34.7715 347.806 34.7715C348.476 34.7715 348.813 35.1494 348.819 35.9053V38H348.277V35.9023C348.275 35.6738 348.223 35.5049 348.119 35.3955C348.018 35.2861 347.858 35.2314 347.642 35.2314C347.466 35.2314 347.312 35.2783 347.179 35.3721C347.046 35.4658 346.942 35.5889 346.868 35.7412V38H346.326V34.8301H346.839ZM351.392 38V35.249H350.891V34.8301H351.392V34.5049C351.392 34.165 351.482 33.9023 351.664 33.7168C351.846 33.5312 352.103 33.4385 352.435 33.4385C352.56 33.4385 352.684 33.4551 352.807 33.4883L352.777 33.9277C352.686 33.9102 352.588 33.9014 352.484 33.9014C352.309 33.9014 352.173 33.9531 352.077 34.0566C351.981 34.1582 351.934 34.3047 351.934 34.4961V34.8301H352.61V35.249H351.934V38H351.392ZM353.067 36.3857C353.067 36.0752 353.128 35.7959 353.249 35.5479C353.372 35.2998 353.542 35.1084 353.759 34.9736C353.978 34.8389 354.227 34.7715 354.506 34.7715C354.938 34.7715 355.286 34.9209 355.552 35.2197C355.819 35.5186 355.953 35.916 355.953 36.4121V36.4502C355.953 36.7588 355.894 37.0361 355.774 37.2822C355.657 37.5264 355.488 37.7168 355.268 37.8535C355.049 37.9902 354.797 38.0586 354.512 38.0586C354.082 38.0586 353.733 37.9092 353.466 37.6104C353.2 37.3115 353.067 36.916 353.067 36.4238V36.3857ZM353.612 36.4502C353.612 36.8018 353.693 37.084 353.855 37.2969C354.02 37.5098 354.238 37.6162 354.512 37.6162C354.787 37.6162 355.006 37.5088 355.168 37.2939C355.33 37.0771 355.411 36.7744 355.411 36.3857C355.411 36.0381 355.328 35.7568 355.162 35.542C354.998 35.3252 354.779 35.2168 354.506 35.2168C354.238 35.2168 354.022 35.3232 353.858 35.5361C353.694 35.749 353.612 36.0537 353.612 36.4502ZM358.59 37.6865C358.379 37.9346 358.069 38.0586 357.661 38.0586C357.323 38.0586 357.065 37.9609 356.888 37.7656C356.712 37.5684 356.623 37.2773 356.621 36.8926V34.8301H357.163V36.8779C357.163 37.3584 357.358 37.5986 357.749 37.5986C358.163 37.5986 358.438 37.4443 358.575 37.1357V34.8301H359.117V38H358.602L358.59 37.6865ZM360.456 34.8301L360.474 35.2285C360.716 34.9238 361.032 34.7715 361.423 34.7715C362.093 34.7715 362.431 35.1494 362.437 35.9053V38H361.895V35.9023C361.893 35.6738 361.84 35.5049 361.736 35.3955C361.635 35.2861 361.476 35.2314 361.259 35.2314C361.083 35.2314 360.929 35.2783 360.796 35.3721C360.663 35.4658 360.56 35.5889 360.485 35.7412V38H359.943V34.8301H360.456ZM363.122 36.3887C363.122 35.9023 363.237 35.5117 363.468 35.2168C363.698 34.9199 364 34.7715 364.373 34.7715C364.744 34.7715 365.038 34.8984 365.255 35.1523V33.5H365.797V38H365.299L365.272 37.6602C365.056 37.9258 364.754 38.0586 364.367 38.0586C364 38.0586 363.7 37.9082 363.468 37.6074C363.237 37.3066 363.122 36.9141 363.122 36.4297V36.3887ZM363.664 36.4502C363.664 36.8096 363.738 37.0908 363.887 37.2939C364.035 37.4971 364.24 37.5986 364.502 37.5986C364.846 37.5986 365.097 37.4443 365.255 37.1357V35.6797C365.093 35.3809 364.844 35.2314 364.508 35.2314C364.242 35.2314 364.035 35.334 363.887 35.5391C363.738 35.7441 363.664 36.0479 363.664 36.4502Z" fill="black"/>
            </g>
        </g>
        <g id="pillars-bar">
            <g id="pillars">
                <rect id="pillar-1" x="533" y="262" width="8" height="15" fill="#E78F46"/>
                <rect id="pillar-2" x="510" y="262" width="8" height="15" fill="#E78F46"/>
                <rect id="pillar-3" x="487" y="262" width="8" height="15" fill="#E78F46"/>
                <rect id="pillar-4" x="464" y="262" width="8" height="15" fill="#E78F46"/>
                <rect id="pillar-5" x="441" y="262" width="8" height="15" fill="#E78F46"/>
                <rect id="pillar-6" x="418" y="262" width="8" height="15" fill="#E78F46"/>
                <rect id="pillar-7" x="364" y="340" width="8" height="15" fill="#E78F46"/>
                <rect id="pillar-8" x="341" y="340" width="8" height="15" fill="#E78F46"/>
                <rect id="pillar-9" x="318" y="340" width="8" height="15" fill="#E78F46"/>
                <path id="pillar-10" d="M295 340H303V355H295V340Z" fill="#E78F46"/>
                <rect id="pillar-11" x="272" y="340" width="8" height="15" fill="#E78F46"/>
                <rect id="pillar-12" x="249" y="340" width="8" height="15" fill="#E78F46"/>
                <path id="pillar-13" d="M204 301.158L212 304.257V316.5L204 313.5V301.158Z" fill="#E78F46"/>
                <path id="pillar-14" d="M181 292.223L189 295.351V308L181 305.106V292.223Z" fill="#E78F46"/>
                <path id="pillar-15" d="M158 283.172L166 286.316V299.816L158 296.816V283.172Z" fill="#E78F46"/>
                <path id="pillar-16" d="M135 274L143 277.233V290.5L135 287V274Z" fill="#E78F46"/>
                <path id="pillar-17" d="M112 264.973L120 268.11V282L112 278V264.973Z" fill="#E78F46"/>
            </g>
            <path id="bar" d="M553 258C553 254.8 549 254 547 254H406.5C404.9 254 403.833 255 403.5 255.5C392.833 281.167 371.3 333 370.5 335C369.7 337 368.167 337.5 367.5 337.5L249.5 336.5C246 335.667 237.6 332.4 232 326C225 318 225 305 225 303C225 301.4 223.333 300.333 222.5 300L111 255C109.833 254.667 107.2 254.6 106 257C104.8 259.4 106.167 262 107 263C141.833 276.833 212 304.6 214 305C216 305.4 216.833 306.5 217 307C217.833 312.167 220.9 324.4 226.5 332C232.1 339.6 244.167 343.833 249.5 345H374C374.4 345 374.833 344.333 375 344L409.5 262H547C549 262 553 261.2 553 258Z" fill="#F8B661"/>
        </g>
        <g id="floating">
            <g id="floating-directeur">
                <path id="directeur" d="M498 345H491H490.5C480.5 371.167 460.2 424.2 459 427C457.8 429.8 457.167 432.5 457 433.5C457 434.667 456.957 437.871 458 441C459.5 445.5 461 448 466.5 450.5C471.252 452.66 478 453 482.5 453C487 453 489.5 452.286 494 451C498.5 449.714 501.5 447.5 505 444C510.799 438.201 519 396.5 519 393C519 390.2 518.333 387.833 518 387C517.5 385.5 516.5 384 515 382C513.601 380.134 512 379.5 508.5 379C505 379 497.552 379.388 496 379C494 378.5 493 377.75 492 377C490 375.5 489 374 489 371C489 368.6 490.333 365.333 491 364L498 345Z" fill="#713120"/>
                <g id="bar-attache">
                    <path d="M488 433H451.5H451L453 428H488C488.667 428 490 428.5 490 430.5C490 432.5 488.667 433 488 433Z" fill="#39160F"/>
                    <path d="M498.5 395H465.5L467.5 390H498.5C499.333 390.167 501 390.9 501 392.5C501 394.1 499.333 394.833 498.5 395Z" fill="#39160F"/>
                </g>
                <g id="attache-directeur">
                    <circle id="bot-left-attache-directeur" cx="487.5" cy="430.5" r="1.5" fill="#C4AFA8"/>
                    <circle id="bot-right-attache-directeur" cx="468.5" cy="430.5" r="1.5" fill="#C4AFA8"/>
                    <circle id="top-left-attache-directeur" cx="479.5" cy="392.5" r="1.5" fill="#C4AFA8"/>
                    <circle id="top-right-attache-directeur" cx="497.5" cy="392.5" r="1.5" fill="#C4AFA8"/>
                </g>
            </g>
            <g id="floating-ship-parts">
                <path id="int-float" d="M537 305L527 331H401H390.735L380.709 355H382.5H396H481.5L469.5 385H268C259.6 385 242.5 380.5 234 378C216.5 371 215.5 371 206 361C200.337 355.039 188 326 183.5 311.5C192.833 315.167 211.948 321.798 213 322.5C214.5 323.5 215 323.5 215.5 325C216.656 328.467 218.107 338.657 224.5 348C231 357.5 247.5 360 255 361C294.167 361.333 371.2 362 374 362C376.8 362 378.833 359 379.5 357.5L380.5 355.5L380.709 355L390.735 331L401.596 305H537Z" fill="#B5624C"/>
                <path id="mid-float" d="M459 413H259C237.5 411.5 196 398.5 179 377.5C162.256 356.817 148 315.167 143 296L183.5 311.485L211 322C212.333 322.667 215 324.6 215 327C215 330 219.5 344.5 226.5 350.5C233.5 356.5 247 361 248.5 361C249.7 361 333 361.667 374.5 362C375.5 361.667 378.1 359.8 380.5 355C381.549 352.901 385.696 343.143 390.782 331C394.186 322.875 398.01 313.681 401.61 305C404.935 296.981 408.068 289.4 410.5 283.5C410.667 283.167 411.2 282.5 412 282.5C412.8 282.5 501.333 282.833 545.5 283L537 305H451H412H403H401.61C398.01 313.681 394.186 322.875 390.782 331H527L522 345H485L481.5 355H380.5C378.1 359.8 375.5 361.667 374.5 362C333 361.667 249.7 361 248.5 361C247 361 233.5 356.5 226.5 350.5C219.5 344.5 215 330 215 327C215 324.6 212.333 322.667 211 322L183.5 311.485C186.833 321.99 196.1 346.6 206.5 361C216.9 375.4 252.167 383 268.5 385H469.5L459 413Z" fill="#9D4D33"/>
                <path id="ext-float" d="M406.5 277H548L545.5 283C501 282.833 412.4 282.5 412 282.5C411.6 282.5 410.667 283.167 410.5 283.5C401.167 306.167 382 353 380 357C378 361 375.833 361.833 375 362H313.5L252.5 361C249.833 361 242.2 359.8 233 355C221.4 349.4 216.5 335.667 215.5 329.5C215.333 328.333 215 325.8 215 325C215 324.2 213.667 323.333 213 323L144 297C147.833 314.5 160.8 355.5 182 379.5C203.2 403.5 247.667 411.333 267 412.5H363.5H459.188L453 429C453 429 448.818 439.863 448.5 440.5C447.7 442.1 446.5 442.5 446 442.5L266.5 441.5C250.667 441.5 209.4 434.3 171 405.5C132.6 376.7 115 316.5 111 290C111.167 286.333 111.5 278.9 111.5 278.5C111.5 278.1 111.833 278 112 278C147.167 291.333 217.8 318.2 219 319C220.2 319.4 220.833 320.833 221 321.5C221 324.333 222.4 332.4 228 342C233.6 351.6 246.667 354.667 252.5 355H373C374.2 355 374.833 354 375 353.5L406.5 277Z" fill="#894030"/>
            </g>
            <g id="floating-canons">
                <g id="cadres">
                    <rect id="left-cadre-canon" x="249" y="368" width="31" height="32" rx="2" fill="#D4722A"/>
                    <rect id="mid-cadre-canon" x="301" y="368" width="31" height="32" rx="2" fill="#D4722A"/>
                    <rect id="right-cadre-canon" x="352" y="368" width="31" height="32" rx="2" fill="#D4722A"/>
                </g>
                <g id="int-cadre">
                    <rect id="left-int-cadre-canon" x="253" y="373" width="22" height="22" fill="#3B1814"/>
                    <rect id="mid-int-cadre-canon" x="306" y="373" width="22" height="22" fill="#3B1814"/>
                    <rect id="right-int-cadre-canon" x="356" y="373" width="22" height="22" fill="#3B1814"/>
                </g>
                <g id="canons">
                    <rect id="left-canon" x="255" y="375" width="18" height="18" rx="9" fill="#969696"/>
                    <rect id="mid-canon" x="308" y="375" width="18" height="18" rx="9" fill="#969696"/>
                    <rect id="right-canon" x="358" y="375" width="18" height="18" rx="9" fill="#969696"/>
                </g>
                <g id="int-canon">
                    <rect id="left-int-canon" x="258" y="378" width="12" height="12" rx="6" fill="#383332"/>
                    <rect id="mid-int-canon" x="311" y="378" width="12" height="12" rx="6" fill="#383332"/>
                    <rect id="right-int-canon" x="361" y="378" width="12" height="12" rx="6" fill="#383332"/>
                </g>
            </g>
            <g id="floating-fenetre">
                <g id="cadre-fenetre">
                    <path id="left-cadre-fenetre" d="M414 331H440L439.5 298.5C439.5 294.5 435 289 427 289C418.5 289 414 295 414 298.5V331Z" fill="#D3732F"/>
                    <path id="mid-cadre-fenetre" d="M453 331H479V298C479 295 475 289 466 289C457.5 289 453.5 295 453.5 298L453 331Z" fill="#D3732F"/>
                    <path id="right-cadre-fenetre" d="M492 331H516V297.5C516 294.5 511.765 289 503.765 289C495.765 289 492 294.5 492 297.5V314V331Z" fill="#D3732F"/>
                </g>
                <g id="int-fenetre">
                    <g id="left-int-fenetre">
                        <path d="M428 327H436H437V319H428V327Z" fill="#5DD6E4"/>
                        <path d="M417 319V327H425.5V319H417Z" fill="#5DD6E4"/>
                        <path d="M417 305V316.5H425.5V305H417Z" fill="#5DD6E4"/>
                        <path d="M425.5 292.5C419 292.5 417.167 299.5 417 303H425.5V292.5Z" fill="#5DD6E4"/>
                        <path d="M428 292.5V303H437C437 294.6 431 292.5 428 292.5Z" fill="#5DD6E4"/>
                        <path d="M437 316.5V305H428V316.5H437Z" fill="#5DD6E4"/>
                    </g>
                    <g id="mid-int-fenetre">
                        <path d="M467 327H475V326V319H467V327Z" fill="#5DD6E4"/>
                        <path d="M457 319V327H465V319H457Z" fill="#5DD6E4"/>
                        <path d="M457 305V317H465V305H457Z" fill="#5DD6E4"/>
                        <path d="M465 292.5C458 292.5 457 298.5 457 303H465V292.5Z" fill="#5DD6E4"/>
                        <path d="M467 292.5V303H475C475 294.5 471.5 292.5 467 292.5Z" fill="#5DD6E4"/>
                        <path d="M475 317V305H467V317H475Z" fill="#5DD6E4"/>
                    </g>
                    <g id="right-int-fenetre">
                        <path d="M505 327H513V319H505V327Z" fill="#5DD6E4"/>
                        <path d="M495 319V327H503V319H495Z" fill="#5DD6E4"/>
                        <path d="M495 305V317H503V305H495Z" fill="#5DD6E4"/>
                        <path d="M503 293C496 293 495 298.5 495 303H503V293Z" fill="#5DD6E4"/>
                        <path d="M505 293V303H513C513 294.6 508 293 505 293Z" fill="#5DD6E4"/>
                        <path d="M513 317V305H505V317H513Z" fill="#5DD6E4"/>
                    </g>
                </g>
            </g>
        </g>
    </g>
</svg>
